# xmcd
#
# Track frame offsets:
#	150
#	14255
#	24295
#	38665
#	48970
#	62320
#	75230
#	86545
#	100940
#	113150
#	127388
#	141375
#	153625
#	165515
#	176915
#	185495
#	200530
#	214933
#	227920
#	239150
#	250670
#	264713
#	278703
#	291363
#
# Disc length: 4076
#
# Revision: 2
# Processed by: cddbd v1.5.1PL0 Copyright (c) Steve Scherf et al.
# Submitted via: CedeCatalogueitor 2.5 http://usuarios.lycos.es/kakasboy
# Normalized: r1:DSETVAR1,TDELIM( - )
#
DISCID=590fea18
DTITLE=Various Artist - El Tango
DYEAR=1991
DGENRE=
TTITLE0=Susana Rinaldi - El Choclo
TTITLE1=Susana Rinaldi - El último Café
TTITLE2=Carlos Gardel - Cuesta Abajo
TTITLE3=Carlos Gardel - La Cumparsita
TTITLE4=Carlos Gardel - Volver
TTITLE5=Libertad Lamarque - Sombras Nada Más
TTITLE6=Libertad Lamarque - Volvé
TTITLE7=Fiorentino - Viejo Ciego
TTITLE8=Fiorentino - Otros Tiempos Y Otros Hombres
TTITLE9=Ada Falcón - Envidia
TTITLE10=Ada Falcón - No Me Mientas
TTITLE11=Mercedes Simone - Ave Sin Rumbo
TTITLE12=Mercedes Simone - Cuentas Viejas
TTITLE13=Azucena Maizani - Marioneta
TTITLE14=Azucena Maizani - Monte Criollo
TTITLE15=Agustin Irusta - Para Tí, Madre
TTITLE16=Agustin Irusta - Las Margaritas
TTITLE17=Amanda Ledesma - Condena
TTITLE18=Amanda Ledesma - Primavera
TTITLE19=Charlo - Tormento
TTITLE20=Charlo - Tiempos Viejos
TTITLE21=Nelly Omar - Sentimiento Gaucho
TTITLE22=Nelly Omar - La Canción De Buenos Aires
TTITLE23=Nelly Omar - Adiós, Pampa Mía
EXTD=
EXTT0=
EXTT1=
EXTT2=
EXTT3=
EXTT4=
EXTT5=
EXTT6=
EXTT7=
EXTT8=
EXTT9=
EXTT10=
EXTT11=
EXTT12=
EXTT13=
EXTT14=
EXTT15=
EXTT16=
EXTT17=
EXTT18=
EXTT19=
EXTT20=
EXTT21=
EXTT22=
EXTT23=
PLAYORDER=
